# AST/ASF file generated using VICON BodyLanguage
# -----------------------------------------------
:version 1.10
:name VICON
:units
  mass 1.0
  length 0.45
  angle deg
:documentation
   .ast/.asf automatically generated from VICON data using
   VICON BodyBuilder and BodyLanguage model FoxedUp or BRILLIANT.MOD
:root
   order TX TY TZ RX RY RZ
   axis XYZ
   position 0 0 0  
   orientation 0 0 0 
:bonedata
  begin
     id 1 
     name lhipjoint
     direction 0.693937 -0.600361 0.397515 
     length 2.37164 
     axis 0 0 0  XYZ
  end
  begin
     id 2 
     name lfemur
     direction 0.34202 -0.939693 0  
     length 6.18497  
     axis 0 0 20  XYZ
    dof rx ry rz
    limits (-160.0 20.0)
           (-70.0 70.0)
           (-60.0 70.0)
  end
  begin
     id 3 
     name ltibia
     direction 0.34202 -0.939693 0   
     length 6.91601   
     axis 0 0 20   XYZ
    dof rx
    limits (-10.0 170.0)
  end
  begin
     id 4 
     name lfoot
     direction 0.0978718 -0.2689 0.958182   
     length 1.81453   
     axis -90 7.62852e-016 20   XYZ
    dof rx rz
    limits (-45.0 90.0)
           (-70.0 20.0)
  end
  begin
     id 5 
     name ltoes
     direction 1.53569e-011 -4.21951e-011 1   
     length 0.912052   
     axis -90 7.62852e-016 20   XYZ
    dof rx
    limits (-90.0 20.0)
  end
  begin
     id 6 
     name rhipjoint
     direction -0.643996 -0.637876 0.422354   
     length 2.23216  
     axis 0 0 0  XYZ 
  end
  begin
     id 7 
     name rfemur
     direction -0.34202 -0.939693 0   
     length 6.15404   
     axis 0 0 -20   XYZ
    dof rx ry rz
    limits (-160.0 20.0)
           (-70.0 70.0)
           (-70.0 60.0)
  end
  begin
     id 8 
     name rtibia
     direction -0.34202 -0.939693 0   
     length 6.86744   
     axis 0 0 -20   XYZ
    dof rx
    limits (-10.0 170.0)
 end
 begin
     id 9 
     name rfoot
     direction -0.118701 -0.326127 0.937844   
     length 1.9243  
     axis -90 -7.62852e-016 -20   XYZ
    dof rx rz
    limits (-45.0 90.0)
           (-20.0 70.0)
  end
  begin
     id 10 
     name rtoes
     direction -1.5356e-011 -4.2181e-011 1   
     length 0.958865   
     axis -90 -7.62852e-016 -20   XYZ
    dof rx
    limits (-90.0 20.0)
  end
  begin
     id 11 
     name lowerback
     direction 0.0310826 0.968686 -0.246334   
     length 2.00021   
     axis 0 0 0   XYZ
    dof rx ry rz
    limits (-20.0 45.0)
           (-30.0 30.0)
           (-30.0 30.0)
  end
  begin
     id 12 
     name upperback
     direction -0.0152834 0.999474 -0.0286152   
     length 2.03728   
     axis 0 0 0   XYZ
    dof rx ry rz
    limits (-20.0 45.0)
           (-30.0 30.0)
           (-30.0 30.0)
  end
  begin
     id 13 
     name thorax
     direction -0.0323701 0.996236 0.0804149   
     length 2.16   
     axis 0 0 0   XYZ
    dof rx ry rz
    limits (-20.0 45.0)
           (-30.0 30.0)
           (-30.0 30.0)
  end
  begin
     id 14 
     name lowerneck
     direction 0.0307935 0.982251 0.185027   
     length 1.43558   
     axis 0 0 0   XYZ
    dof rx ry rz
    limits (-20.0 45.0)
           (-30.0 30.0)
           (-30.0 30.0)
  end
  begin
     id 15 
     name upperneck
     direction -0.0927153 0.994775 0.0427454   
     length 1.44603   
     axis 0 0 0   XYZ
    dof rx ry rz
    limits (-20.0 45.0)
           (-30.0 30.0)
           (-30.0 30.0)
  end
  begin
     id 16
     name head
     direction -0.0341265 0.999406 -0.00472033  
     length 1.45931  
     axis 0 0 0   XYZ
    dof rx ry rz
    limits (-20.0 45.0)
           (-30.0 30.0)
           (-30.0 30.0)
  end
  begin
     id 17 
     name lclavicle
     direction 0.820755 0.555306 -0.134151  
     length 2.66075  
     axis 0 0 0   XYZ
    dof ry rz
    limits (-20.0 10.0)
           (0.0 20.0)
  end
  begin
     id 18 
     name lhumerus
     direction 1 -4.48971e-011 5.24853e-027   
     length 5.0546   
     axis -180 -30 -90   XYZ
    dof rx ry rz
    limits (-60.0 90.0)
           (-90.0 90.0)
           (-90.0 90.0)
  end
  begin
     id 19
     name lradius
     direction 1 -4.48971e-011 2.76575e-028   
     length 3.39013   
     axis -180 -30 -90   XYZ
    dof rx
    limits (-10.0 170.0)
  end
  begin
     id 20
     name lwrist
     direction 1 -4.48939e-011 -2.27826e-027   
     length 1.69507   
     axis 2.17013e-015 90 90   XYZ
    dof ry
    limits (-180.0 0.0)
 end
  begin
     id 21 
     name lhand
     direction 1 -4.49009e-011 -4.55652e-027   
     length 0.572425   
     axis 2.90745e-015 90 90   XYZ
    dof rx rz
    limits (-90.0 90.0)
           (-45.0 45.0)
  end
  begin
     id 22 
     name lfingers
     direction 1 -4.48955e-011 -9.11303e-027   
     length 0.461504   
     axis 5.81489e-015 90 90   XYZ
    dof rx
    limits (0.0 90.0)
  end
  begin
     id 23
     name lthumb
     direction 0.707107 -6.34929e-011 0.707107   
     length 0.66263   
     axis -90 45 2.85299e-015   XYZ
    dof rx rz
    limits (-45.0 45.0)
           (-45.0 45.0)
  end
  begin
     id 24 
     name rclavicle
     direction -0.754477 0.632921 -0.173712   
     length 2.73081  
     axis 0 0 0   XYZ 
    dof ry rz
    limits (-10.0 20.0)
           (-20.0 0.0)
  end
  begin
     id 25 
     name rhumerus
     direction -1 -4.48969e-011 5.1496e-027  
     length 5.0701   
     axis -180 30 90   XYZ
    dof rx ry rz
    limits (-90.0 60.0)
           (-90.0 90.0)
           (-90.0 90.0)
  end
  begin
     id 26 
     name rradius
     direction -1 -4.48967e-011 -7.15624e-028   
     length 3.14957   
     axis -180 30 90   XYZ
    dof rx
    limits (-10.0 170.0)
  end
  begin
     id 27 
     name rwrist
     direction -1 -4.48938e-011 -2.27826e-027   
     length 1.57479   
     axis 2.17013e-015 -90 -90   XYZ
    dof ry
    limits (-180.0 0.0)
  end
  begin
     id 28
     name rhand
     direction -1 -4.49008e-011 -4.55652e-027   
     length 0.718191   
     axis 2.90745e-015 -90 -90   XYZ
    dof rx rz
    limits (-90.0 90.0)
           (-45.0 45.0)
  end
  begin
     id 29
     name rfingers
     direction -1 -4.48953e-011 -9.11303e-027   
     length 0.579024   
     axis 5.81489e-015 -90 -90   XYZ
    dof rx
    limits (0.0 90.0)
  end
  begin
     id 30
     name rthumb
     direction -0.707107 -6.34937e-011 0.707107   
     length 0.831366   
     axis -90 -45 -2.85299e-015   XYZ
    dof rx rz
    limits (-45.0 45.0)
           (-45.0 45.0)
  end
:hierarchy
  begin
    root lhipjoint rhipjoint lowerback
    lhipjoint lfemur
    lfemur ltibia
    ltibia lfoot
    lfoot ltoes
    rhipjoint rfemur
    rfemur rtibia
    rtibia rfoot
    rfoot rtoes
    lowerback upperback
    upperback thorax
    thorax lowerneck lclavicle rclavicle
    lowerneck upperneck
    upperneck head
    lclavicle lhumerus
    lhumerus lradius
    lradius lwrist
    lwrist lhand lthumb
    lhand lfingers
    rclavicle rhumerus
    rhumerus rradius
    rradius rwrist
    rwrist rhand rthumb
    rhand rfingers
  end

#!OML:ASF H:\Male1\Project 1\Capture day 1\Session 1\Male1.ASF
:FULLY-SPECIFIED
:DEGREES
103
root 16.6605 15.4889 -0.644145 173.404 -80.0566 -175.825
lowerback 2.04965 1.55288 -0.771125
upperback 1.76388 2.02739 -2.04093
thorax 0.705853 1.00144 -1.6867
lowerneck -6.5771 4.71136 6.6648
upperneck 9.68533 5.81634 -2.30327
head 4.23985 2.9695 -1.44817
rclavicle 7.1811e-015 2.46493e-014
rhumerus -36.0106 6.44536 -89.9312
rradius 30.6408
rwrist -16.4376
rhand -15.7677 2.69798
rfingers 7.12502
rthumb 10.4243 -27.0236
lclavicle 7.1811e-015 2.46493e-014
lhumerus 22.3919 15.805 46.4902
lradius 104.17
lwrist 24.9851
lhand -49.2334 10.6383
lfingers 7.12502
lthumb -21.8532 39.4243
rfemur 0.519788 18.0009 24.775
rtibia 19.2169
rfoot -33.1028 -33.4378
rtoes -10.428
lfemur 1.23189 -17.7214 -21.6246
ltibia 20.8823
lfoot -27.6213 30.4762
ltoes 4.60746
104
root 16.657 15.4883 -0.640596 173.246 -80.1524 -175.663
lowerback 2.02229 1.50984 -0.733563
upperback 1.7749 1.97218 -1.98842
thorax 0.730508 0.974373 -1.65216
lowerneck -6.68243 4.69406 6.6197
upperneck 9.83686 5.79621 -2.3501
head 4.30272 2.95572 -1.45272
rclavicle 7.55382e-015 -3.18055e-015
rhumerus -35.9387 6.54211 -89.9077
rradius 30.552
rwrist -16.3728
rhand -15.7836 2.75084
rfingers 7.12502
rthumb 10.4089 -26.9715
lclavicle 7.55382e-015 -3.18055e-015
lhumerus 22.629 16.1722 47.0129
lradius 104.353
lwrist 27.3044
lhand -48.5011 14.4443
lfingers 7.12502
lthumb -21.1498 43.3107
rfemur 0.562399 18.0003 24.7924
rtibia 19.1846
rfoot -33.2052 -33.4689
rtoes -10.2186
lfemur 1.20557 -17.7332 -21.6131
ltibia 20.9216
lfoot -27.5785 30.4336
ltoes 4.44822
105
root 16.653 15.4876 -0.637103 173.441 -80.2585 -175.856
lowerback 1.98936 1.462 -0.740637
upperback 1.78053 1.90949 -1.96541
thorax 0.752176 0.943024 -1.62281
lowerneck -6.79176 4.68963 6.57892
upperneck 10.0047 5.79178 -2.38756
head 4.37192 2.95019 -1.45387
rclavicle -3.1085e-014 1.66979e-014
rhumerus -35.8673 6.66378 -89.912
rradius 30.5132
rwrist -16.3678
rhand -15.771 2.76617
rfingers 7.12502
rthumb 10.4211 -26.9556
lclavicle -3.1085e-014 1.66979e-014
lhumerus 22.8033 16.4766 47.4554
lradius 104.384
lwrist 28.5379
lhand -47.877 17.254
lfingers 7.12502
lthumb -20.5502 46.1863
rfemur 0.576379 17.948 24.7331
rtibia 19.2025
rfoot -33.2908 -33.47
rtoes -10.1367
lfemur 1.20429 -17.7518 -21.672
ltibia 20.9119
lfoot -27.4955 30.4186
ltoes 4.24649
106
root 16.6487 15.4869 -0.633772 173.925 -80.3664 -176.341
lowerback 1.95856 1.41171 -0.779981
upperback 1.78385 1.84258 -1.96958
thorax 0.770159 0.909151 -1.60337
lowerneck -6.91085 4.69549 6.54292
upperneck 10.1841 5.79931 -2.41662
head 4.44682 2.951 -1.4521
rclavicle 2.56681e-014 -1.90833e-014
rhumerus -35.784 6.78669 -89.9373
rradius 30.5172
rwrist -16.4188
rhand -15.7461 2.76394
rfingers 7.12502
rthumb 10.4451 -26.9566
lclavicle 2.56681e-014 -1.90833e-014
lhumerus 22.8923 16.6693 47.7365
lradius 104.277
lwrist 28.6896
lhand -47.4055 19.1033
lfingers 7.12502
lthumb -20.097 48.0839
rfemur 0.570116 17.8605 24.6147
rtibia 19.2614
rfoot -33.3633 -33.4406
rtoes -10.1382
lfemur 1.2271 -17.7746 -21.7872
ltibia 20.8622
lfoot -27.3848 30.4227
ltoes 4.04489
107
root 16.6443 15.4862 -0.630694 174.525 -80.4594 -176.95
lowerback 1.93589 1.36277 -0.826584
upperback 1.79189 1.77701 -1.98935
thorax 0.788829 0.875792 -1.59609
lowerneck -7.03478 4.70277 6.4986
upperneck 10.3591 5.80812 -2.43252
head 4.52066 2.95267 -1.44484
rclavicle 1.66482e-015 -7.15625e-015
rhumerus -35.6807 6.904 -89.9744
rradius 30.5661
rwrist -16.5135
rhand -15.7242 2.77456
rfingers 7.12502
rthumb 10.4663 -26.9449
lclavicle 1.66482e-015 -7.15625e-015
lhumerus 22.8922 16.7308 47.8114
lradius 104.05
lwrist 27.7708
lhand -47.069 20.0866
lfingers 7.12502
lthumb -19.7736 49.1008
rfemur 0.558806 17.7636 24.4765
rtibia 19.3406
rfoot -33.4119 -33.4029
rtoes -10.2345
lfemur 1.27101 -17.7974 -21.9256
ltibia 20.7934
lfoot -27.2795 30.4308
ltoes 3.90512
